<mxfile host="app.diagrams.net" modified="2024-06-17T08:37:50.593Z" agent="Mozilla/5.0 (Windows NT 10.0; Win64; x64) AppleWebKit/537.36 (KHTML, like Gecko) Chrome/126.0.0.0 Safari/537.36 Edg/126.0.0.0" version="24.5.4" etag="4kjCAMVYhTMB1CGPbZH8" type="github">
  <diagram name="第 1 页" id="7dTMgKlNqujv-qHVRdo3">
    <mxGraphModel>
      <root>
        <mxCell id="0" />
        <mxCell id="1" parent="0" />
      </root>
    </mxGraphModel>
  </diagram>
</mxfile>
